<mxfile host="app.diagrams.net" modified="2024-01-03T09:49:11.201Z" agent="Mozilla/5.0 (Macintosh; Intel Mac OS X 10_15_7) AppleWebKit/537.36 (KHTML, like Gecko) Chrome/120.0.0.0 Safari/537.36" etag="YW46cEJAj8REDLl8-ig7" version="22.1.16" type="device">
  <diagram name="Page-1" id="G-Hnnimi3AtAUF-iqqiE">
    <mxGraphModel dx="1754" dy="896" grid="1" gridSize="10" guides="1" tooltips="1" connect="1" arrows="1" fold="1" page="1" pageScale="1" pageWidth="850" pageHeight="1100" math="0" shadow="0">
      <root>
        <mxCell id="0" />
        <mxCell id="1" parent="0" />
        <mxCell id="H-2G5FJ_nn1qaRd-5lnV-1" value="Stream User" style="rounded=0;whiteSpace=wrap;html=1;" vertex="1" parent="1">
          <mxGeometry x="60" y="120" width="120" height="60" as="geometry" />
        </mxCell>
        <mxCell id="H-2G5FJ_nn1qaRd-5lnV-2" value="LB" style="rhombus;whiteSpace=wrap;html=1;" vertex="1" parent="1">
          <mxGeometry x="290" y="120" width="80" height="80" as="geometry" />
        </mxCell>
        <mxCell id="H-2G5FJ_nn1qaRd-5lnV-3" value="" style="endArrow=classic;html=1;rounded=0;exitX=1;exitY=0.5;exitDx=0;exitDy=0;" edge="1" parent="1" source="H-2G5FJ_nn1qaRd-5lnV-1">
          <mxGeometry width="50" height="50" relative="1" as="geometry">
            <mxPoint x="240" y="210" as="sourcePoint" />
            <mxPoint x="290" y="160" as="targetPoint" />
          </mxGeometry>
        </mxCell>
        <mxCell id="H-2G5FJ_nn1qaRd-5lnV-4" value="Steamming Upload Service" style="rounded=0;whiteSpace=wrap;html=1;" vertex="1" parent="1">
          <mxGeometry x="440" y="130" width="120" height="60" as="geometry" />
        </mxCell>
        <mxCell id="H-2G5FJ_nn1qaRd-5lnV-5" value="" style="endArrow=classic;html=1;rounded=0;exitX=1;exitY=0.5;exitDx=0;exitDy=0;" edge="1" parent="1" source="H-2G5FJ_nn1qaRd-5lnV-2">
          <mxGeometry width="50" height="50" relative="1" as="geometry">
            <mxPoint x="390" y="210" as="sourcePoint" />
            <mxPoint x="440" y="160" as="targetPoint" />
          </mxGeometry>
        </mxCell>
        <mxCell id="H-2G5FJ_nn1qaRd-5lnV-6" value="chunks" style="text;html=1;align=center;verticalAlign=middle;resizable=0;points=[];autosize=1;strokeColor=none;fillColor=none;" vertex="1" parent="1">
          <mxGeometry x="360" y="88" width="60" height="30" as="geometry" />
        </mxCell>
        <mxCell id="H-2G5FJ_nn1qaRd-5lnV-7" value="Queue" style="shape=step;perimeter=stepPerimeter;whiteSpace=wrap;html=1;fixedSize=1;" vertex="1" parent="1">
          <mxGeometry x="620" y="140" width="120" height="80" as="geometry" />
        </mxCell>
        <mxCell id="H-2G5FJ_nn1qaRd-5lnV-8" value="" style="endArrow=classic;html=1;rounded=0;exitX=1;exitY=0.5;exitDx=0;exitDy=0;" edge="1" parent="1" source="H-2G5FJ_nn1qaRd-5lnV-4">
          <mxGeometry width="50" height="50" relative="1" as="geometry">
            <mxPoint x="590" y="220" as="sourcePoint" />
            <mxPoint x="640" y="170" as="targetPoint" />
          </mxGeometry>
        </mxCell>
        <mxCell id="H-2G5FJ_nn1qaRd-5lnV-9" value="Follower User" style="rounded=0;whiteSpace=wrap;html=1;" vertex="1" parent="1">
          <mxGeometry x="50" y="530" width="120" height="60" as="geometry" />
        </mxCell>
        <mxCell id="H-2G5FJ_nn1qaRd-5lnV-10" value="Upload Service" style="rounded=0;whiteSpace=wrap;html=1;" vertex="1" parent="1">
          <mxGeometry x="650" y="310" width="120" height="60" as="geometry" />
        </mxCell>
        <mxCell id="H-2G5FJ_nn1qaRd-5lnV-11" value="" style="endArrow=classic;html=1;rounded=0;exitX=1;exitY=0.5;exitDx=0;exitDy=0;" edge="1" parent="1" source="H-2G5FJ_nn1qaRd-5lnV-7" target="H-2G5FJ_nn1qaRd-5lnV-10">
          <mxGeometry width="50" height="50" relative="1" as="geometry">
            <mxPoint x="740" y="270" as="sourcePoint" />
            <mxPoint x="790" y="220" as="targetPoint" />
          </mxGeometry>
        </mxCell>
        <mxCell id="H-2G5FJ_nn1qaRd-5lnV-12" value="Stramming service" style="rounded=0;whiteSpace=wrap;html=1;" vertex="1" parent="1">
          <mxGeometry x="470" y="300" width="120" height="60" as="geometry" />
        </mxCell>
        <mxCell id="H-2G5FJ_nn1qaRd-5lnV-13" value="" style="endArrow=classic;html=1;rounded=0;exitX=0.381;exitY=1.063;exitDx=0;exitDy=0;exitPerimeter=0;entryX=0.64;entryY=-0.033;entryDx=0;entryDy=0;entryPerimeter=0;" edge="1" parent="1" source="H-2G5FJ_nn1qaRd-5lnV-7" target="H-2G5FJ_nn1qaRd-5lnV-12">
          <mxGeometry width="50" height="50" relative="1" as="geometry">
            <mxPoint x="500" y="280" as="sourcePoint" />
            <mxPoint x="550" y="230" as="targetPoint" />
          </mxGeometry>
        </mxCell>
        <mxCell id="H-2G5FJ_nn1qaRd-5lnV-14" value="DB/S3" style="rounded=0;whiteSpace=wrap;html=1;" vertex="1" parent="1">
          <mxGeometry x="670" y="410" width="120" height="60" as="geometry" />
        </mxCell>
        <mxCell id="H-2G5FJ_nn1qaRd-5lnV-15" value="" style="endArrow=classic;html=1;rounded=0;exitX=0.098;exitY=1.067;exitDx=0;exitDy=0;exitPerimeter=0;" edge="1" parent="1" source="H-2G5FJ_nn1qaRd-5lnV-10">
          <mxGeometry width="50" height="50" relative="1" as="geometry">
            <mxPoint x="620" y="460" as="sourcePoint" />
            <mxPoint x="670" y="410" as="targetPoint" />
          </mxGeometry>
        </mxCell>
        <mxCell id="H-2G5FJ_nn1qaRd-5lnV-16" value="User service/Follwer service" style="rounded=0;whiteSpace=wrap;html=1;" vertex="1" parent="1">
          <mxGeometry x="180" y="310" width="120" height="60" as="geometry" />
        </mxCell>
        <mxCell id="H-2G5FJ_nn1qaRd-5lnV-17" value="CDN" style="rounded=0;whiteSpace=wrap;html=1;" vertex="1" parent="1">
          <mxGeometry x="280" y="670" width="120" height="60" as="geometry" />
        </mxCell>
        <mxCell id="H-2G5FJ_nn1qaRd-5lnV-18" value="Famous streameed video" style="text;html=1;align=center;verticalAlign=middle;resizable=0;points=[];autosize=1;strokeColor=none;fillColor=none;" vertex="1" parent="1">
          <mxGeometry x="220" y="728" width="160" height="30" as="geometry" />
        </mxCell>
        <mxCell id="H-2G5FJ_nn1qaRd-5lnV-20" value="" style="endArrow=classic;html=1;rounded=0;exitX=0.598;exitY=1.067;exitDx=0;exitDy=0;exitPerimeter=0;" edge="1" parent="1" source="H-2G5FJ_nn1qaRd-5lnV-9">
          <mxGeometry width="50" height="50" relative="1" as="geometry">
            <mxPoint x="230" y="750" as="sourcePoint" />
            <mxPoint x="280" y="700" as="targetPoint" />
          </mxGeometry>
        </mxCell>
        <mxCell id="H-2G5FJ_nn1qaRd-5lnV-21" value="" style="endArrow=classic;html=1;rounded=0;entryX=1.006;entryY=0.383;entryDx=0;entryDy=0;entryPerimeter=0;exitX=0;exitY=0.75;exitDx=0;exitDy=0;" edge="1" parent="1" source="H-2G5FJ_nn1qaRd-5lnV-12" target="H-2G5FJ_nn1qaRd-5lnV-16">
          <mxGeometry width="50" height="50" relative="1" as="geometry">
            <mxPoint x="430" y="340" as="sourcePoint" />
            <mxPoint x="370" y="320" as="targetPoint" />
          </mxGeometry>
        </mxCell>
        <mxCell id="H-2G5FJ_nn1qaRd-5lnV-22" value="Notiftication Service" style="rounded=0;whiteSpace=wrap;html=1;" vertex="1" parent="1">
          <mxGeometry x="290" y="410" width="120" height="60" as="geometry" />
        </mxCell>
        <mxCell id="H-2G5FJ_nn1qaRd-5lnV-24" value="" style="endArrow=classic;html=1;rounded=0;exitX=0;exitY=0.75;exitDx=0;exitDy=0;entryX=0.848;entryY=-0.017;entryDx=0;entryDy=0;entryPerimeter=0;" edge="1" parent="1" source="H-2G5FJ_nn1qaRd-5lnV-22" target="H-2G5FJ_nn1qaRd-5lnV-9">
          <mxGeometry width="50" height="50" relative="1" as="geometry">
            <mxPoint x="100" y="470" as="sourcePoint" />
            <mxPoint x="150" y="420" as="targetPoint" />
          </mxGeometry>
        </mxCell>
        <mxCell id="H-2G5FJ_nn1qaRd-5lnV-25" value="Push" style="text;html=1;align=center;verticalAlign=middle;resizable=0;points=[];autosize=1;strokeColor=none;fillColor=none;" vertex="1" parent="1">
          <mxGeometry x="135" y="488" width="50" height="30" as="geometry" />
        </mxCell>
        <mxCell id="H-2G5FJ_nn1qaRd-5lnV-26" value="" style="endArrow=classic;html=1;rounded=0;" edge="1" parent="1">
          <mxGeometry width="50" height="50" relative="1" as="geometry">
            <mxPoint x="170" y="570" as="sourcePoint" />
            <mxPoint x="580" y="590" as="targetPoint" />
          </mxGeometry>
        </mxCell>
        <mxCell id="H-2G5FJ_nn1qaRd-5lnV-27" value="Download service" style="rounded=0;whiteSpace=wrap;html=1;" vertex="1" parent="1">
          <mxGeometry x="590" y="550" width="120" height="60" as="geometry" />
        </mxCell>
        <mxCell id="H-2G5FJ_nn1qaRd-5lnV-28" value="" style="endArrow=classic;html=1;rounded=0;" edge="1" parent="1">
          <mxGeometry width="50" height="50" relative="1" as="geometry">
            <mxPoint x="680" y="540" as="sourcePoint" />
            <mxPoint x="720" y="470" as="targetPoint" />
          </mxGeometry>
        </mxCell>
        <mxCell id="H-2G5FJ_nn1qaRd-5lnV-30" value="chunks -&amp;gt; 1-2 second" style="text;html=1;align=center;verticalAlign=middle;resizable=0;points=[];autosize=1;strokeColor=none;fillColor=none;" vertex="1" parent="1">
          <mxGeometry x="410" y="88" width="140" height="30" as="geometry" />
        </mxCell>
        <mxCell id="H-2G5FJ_nn1qaRd-5lnV-32" value="validate the request" style="text;html=1;align=center;verticalAlign=middle;resizable=0;points=[];autosize=1;strokeColor=none;fillColor=none;" vertex="1" parent="1">
          <mxGeometry x="405" y="198" width="130" height="30" as="geometry" />
        </mxCell>
        <mxCell id="H-2G5FJ_nn1qaRd-5lnV-33" value="Cache/redis" style="rounded=0;whiteSpace=wrap;html=1;" vertex="1" parent="1">
          <mxGeometry x="260" y="270" width="120" height="60" as="geometry" />
        </mxCell>
        <mxCell id="H-2G5FJ_nn1qaRd-5lnV-34" value="" style="endArrow=classic;html=1;rounded=0;exitX=0.115;exitY=0.733;exitDx=0;exitDy=0;exitPerimeter=0;entryX=0.815;entryY=-0.067;entryDx=0;entryDy=0;entryPerimeter=0;" edge="1" parent="1" source="H-2G5FJ_nn1qaRd-5lnV-32" target="H-2G5FJ_nn1qaRd-5lnV-22">
          <mxGeometry width="50" height="50" relative="1" as="geometry">
            <mxPoint x="470" y="480" as="sourcePoint" />
            <mxPoint x="520" y="430" as="targetPoint" />
          </mxGeometry>
        </mxCell>
        <mxCell id="H-2G5FJ_nn1qaRd-5lnV-35" value="RTMP" style="text;html=1;align=center;verticalAlign=middle;resizable=0;points=[];autosize=1;strokeColor=none;fillColor=none;" vertex="1" parent="1">
          <mxGeometry x="170" y="440" width="60" height="30" as="geometry" />
        </mxCell>
      </root>
    </mxGraphModel>
  </diagram>
</mxfile>
